<svg viewBox="0 0 9978 2971" fill="none" xmlns="http://www.w3.org/2000/svg">
<path d="M1082.5 2318C880.5 2318 712 2175 672 1985H0C47.5 2537.5 511 2971 1075.5 2971C1640 2971 2104 2537.5 2151 1985H1493C1453 2175.5 1284.5 2318 1082.5 2318Z" fill="white"/>
<path d="M1322.5 2943C1770.5 2838 2111 2454.5 2151 1985H1886C1859.5 2411 1636 2772 1322.5 2943Z" fill="#DFDFDF"/>
<path d="M1330 1898.5C1329.5 1898.5 1329.5 1898.5 1330 1898.5C1329.5 1868 1324 1839 1314 1812C1279 1718 1188.5 1651.5 1082.5 1651.5C976.5 1651.5 886 1718.5 851 1812C841 1839 835.5 1868 835.5 1898.5H836C836 1929 841.5 1958 851.5 1985C886.5 2079 977 2145.5 1083 2145.5C1189 2145.5 1279.5 2078.5 1314.5 1985C1324.5 1958.5 1330 1929 1330 1898.5Z" fill="white"/>
<path d="M1083 1479.5C1285 1479.5 1453.5 1622.5 1493.5 1812.5H2165.5C2118 1259.5 1654.5 826 1089.5 826C524.5 826 61.5 1259.5 14 1812H672.5C712.5 1622 881 1479.5 1083 1479.5Z" fill="white"/>
<path d="M1886 1812H2165C2124 1334.5 1772 945.5 1312.5 849C1631.5 1017.5 1859 1382 1886 1812Z" fill="white"/>
<path d="M604.994 334.472C598.519 334.281 591.994 335.072 585.725 336.898C488.919 359.685 392.965 386.446 299.313 419.622C229.336 444.125 161.055 474.305 99.2375 514.93C74.1099 531.494 49.7358 549.141 26.8608 568.596C21.4548 573.252 15.5016 578.151 14 585.501C21.308 629.704 64.3037 653.52 101.444 671.994C162.461 699.486 231.232 715.263 298.506 707.815C278.484 691.153 250.653 688.511 229.48 673.76C220.871 667.439 220.674 656.067 218.372 646.805C197.699 650.824 178.075 658.567 157.602 663.222C176.473 651.853 196.998 643.472 216.62 633.475C321.534 589.42 434.956 570.453 547.429 555.359C625.815 546.979 705.854 544.333 781.687 521.154C775.53 504.492 772.426 480.042 750.451 477.444C703.2 453.285 680.58 403.494 653.351 361.448C643.365 344.468 624.42 335.044 604.994 334.472Z" fill="white"/>
<path d="M1575.6 334.536C1560.59 334.311 1545.6 338.631 1534.86 349.345C1519.7 364.83 1510.89 384.822 1499.27 402.709C1482.65 431.034 1461.19 457.304 1432.75 474.946C1425.45 479.65 1414.34 478.767 1409.98 487.343C1403.47 497.83 1399.31 509.693 1397.06 521.699C1472.99 543.849 1552.58 546.197 1630.72 555.753C1754.65 571.043 1879.99 593.291 1992.92 647.932C2002.48 653.028 2012.24 658.122 2021.8 663.365C2001.23 658.171 1981.01 651.604 1960.63 645.821C1957.28 655.818 1956.93 668.413 1946.91 674.686C1926.04 688.456 1898.77 691.01 1879.85 707.721C1911.98 711.935 1944.56 708.994 1976.29 703.163C2038.06 691.401 2101.03 668.909 2146.13 624.315L2146.68 624.508C2156.59 611.424 2162 595.988 2164 579.866C2091.72 514.346 2004.33 466.27 1912.68 431.918C1809.52 392.959 1703 363.115 1595.68 337.486C1589.26 335.679 1582.42 334.638 1575.6 334.535V334.536Z" fill="white"/>
<path d="M1089.14 0.00671547C1084.79 -0.152428 1080.46 2.51353 1079.66 8.36959C1061.84 65.8522 1045.98 125.296 1012.34 176.359C1000.23 195.177 982.757 210.122 963.036 220.952C915.383 247.61 862.23 262.361 810.173 278.336C801.964 280.443 795.307 285.688 789.4 291.372C795.407 296.273 801.659 301.271 809.418 303.525C865.379 321.02 923.342 336.312 973.447 367.528C1003.13 385.464 1020.5 416.335 1035.02 446.326H1035.46C1054.03 488.176 1066.7 532.086 1080.31 575.602C1084.17 588.147 1099.54 580.845 1099.79 570.505C1111.2 528.753 1125.61 487.93 1141.48 447.697L1140.38 444.811L1143.83 443.828C1153.24 428.048 1160.65 411.045 1172.47 396.687C1186.93 377.134 1208.36 364.393 1229.68 353.171C1237.44 349.545 1245.3 345.916 1253.16 342.339C1290.45 327.197 1329.04 315.534 1367.58 303.92C1375.19 300.637 1387.85 298.383 1385.65 287.553C1378.64 281.82 1369.94 278.78 1361.43 276.183C1310.77 261.04 1259.36 246.045 1213.31 219.925C1193.54 208.948 1176.52 193.459 1164.61 174.543C1131.97 123.872 1116.01 65.4102 1098.69 8.61367C1097.84 3.14962 1093.48 0.165969 1089.14 0.00671547H1089.14Z" fill="white"/>
<path d="M2977 2015V950H3428.5C3477.5 950 3522.5 960 3563.5 980C3604.5 1000 3640 1027 3670 1061C3701 1095 3725 1133 3742 1175C3759 1217 3767.5 1260 3767.5 1304C3767.5 1364 3753.5 1421 3725.5 1475C3697.5 1529 3659 1573 3610 1607C3561 1641 3503 1658 3436 1658H3184V2015H2977ZM3184 1476.5H3424C3449 1476.5 3471.5 1469.5 3491.5 1455.5C3511.5 1441.5 3527.5 1421.5 3539.5 1395.5C3551.5 1368.5 3557.5 1338 3557.5 1304C3557.5 1267 3550.5 1235.5 3536.5 1209.5C3523.5 1183.5 3506 1164 3484 1151C3463 1138 3440 1131.5 3415 1131.5H3184V1476.5ZM4238.96 2030C4174.96 2030 4117.46 2019.5 4066.46 1998.5C4015.46 1976.5 3971.96 1946.5 3935.96 1908.5C3900.96 1870.5 3873.96 1827 3854.96 1778C3835.96 1729 3826.46 1677.5 3826.46 1623.5C3826.46 1568.5 3835.96 1516.5 3854.96 1467.5C3873.96 1418.5 3900.96 1375 3935.96 1337C3971.96 1299 4015.46 1269.5 4066.46 1248.5C4117.46 1226.5 4174.96 1215.5 4238.96 1215.5C4302.96 1215.5 4359.96 1226.5 4409.96 1248.5C4460.96 1269.5 4504.46 1299 4540.46 1337C4576.46 1375 4603.46 1418.5 4621.46 1467.5C4640.46 1516.5 4649.96 1568.5 4649.96 1623.5C4649.96 1677.5 4640.46 1729 4621.46 1778C4603.46 1827 4576.46 1870.5 4540.46 1908.5C4505.46 1946.5 4462.46 1976.5 4411.46 1998.5C4360.46 2019.5 4302.96 2030 4238.96 2030ZM4033.46 1623.5C4033.46 1669.5 4042.46 1710.5 4060.46 1746.5C4078.46 1781.5 4102.96 1809 4133.96 1829C4164.96 1849 4199.96 1859 4238.96 1859C4276.96 1859 4311.46 1849 4342.46 1829C4373.46 1808 4397.96 1780 4415.96 1745C4434.96 1709 4444.46 1668 4444.46 1622C4444.46 1577 4434.96 1536.5 4415.96 1500.5C4397.96 1464.5 4373.46 1436.5 4342.46 1416.5C4311.46 1396.5 4276.96 1386.5 4238.96 1386.5C4199.96 1386.5 4164.96 1397 4133.96 1418C4102.96 1438 4078.46 1466 4060.46 1502C4042.46 1537 4033.46 1577.5 4033.46 1623.5ZM5322.63 2015L5093.13 1676L4986.63 1781V2015H4785.63V920H4986.63V1583L5303.13 1230.5H5516.13L5223.63 1563.5L5537.13 2015H5322.63ZM5560.73 1782.5C5560.73 1731.5 5574.73 1687 5602.73 1649C5631.73 1610 5671.73 1580 5722.73 1559C5773.73 1538 5832.23 1527.5 5898.23 1527.5C5931.23 1527.5 5964.73 1530 5998.73 1535C6032.73 1540 6062.23 1548 6087.23 1559V1517C6087.23 1467 6072.23 1428.5 6042.23 1401.5C6013.23 1374.5 5969.73 1361 5911.73 1361C5868.73 1361 5827.73 1368.5 5788.73 1383.5C5749.73 1398.5 5708.73 1420.5 5665.73 1449.5L5601.23 1317.5C5653.23 1283.5 5706.23 1258 5760.23 1241C5815.23 1224 5872.73 1215.5 5932.73 1215.5C6044.73 1215.5 6131.73 1243.5 6193.73 1299.5C6256.73 1355.5 6288.23 1435.5 6288.23 1539.5V1790C6288.23 1811 6291.73 1826 6298.73 1835C6306.73 1844 6319.23 1849.5 6336.23 1851.5V2015C6318.23 2018 6301.73 2020.5 6286.73 2022.5C6272.73 2024.5 6260.73 2025.5 6250.73 2025.5C6210.73 2025.5 6180.23 2016.5 6159.23 1998.5C6139.23 1980.5 6126.73 1958.5 6121.73 1932.5L6117.23 1892C6083.23 1936 6040.73 1970 5989.73 1994C5938.73 2018 5886.73 2030 5833.73 2030C5781.73 2030 5734.73 2019.5 5692.73 1998.5C5651.73 1976.5 5619.23 1947 5595.23 1910C5572.23 1872 5560.73 1829.5 5560.73 1782.5ZM6049.73 1823C6060.73 1811 6069.73 1799 6076.73 1787C6083.73 1775 6087.23 1764 6087.23 1754V1674.5C6063.23 1664.5 6037.23 1657 6009.23 1652C5981.23 1646 5954.73 1643 5929.73 1643C5877.73 1643 5834.73 1654.5 5800.73 1677.5C5767.73 1699.5 5751.23 1729 5751.23 1766C5751.23 1786 5756.73 1805 5767.73 1823C5778.73 1841 5794.73 1855.5 5815.73 1866.5C5836.73 1877.5 5861.73 1883 5890.73 1883C5920.73 1883 5950.23 1877.5 5979.23 1866.5C6008.23 1854.5 6031.73 1840 6049.73 1823ZM6476.05 2015V1229H6677.05V2015H6476.05ZM6476.05 1119.5V920H6677.05V1119.5H6476.05ZM8079.38 2015H7878.38V1574C7878.38 1512 7867.38 1466.5 7845.38 1437.5C7824.38 1407.5 7794.88 1392.5 7756.88 1392.5C7717.88 1392.5 7680.38 1408 7644.38 1439C7609.38 1469 7584.38 1508.5 7569.38 1557.5V2015H7368.38V1574C7368.38 1511 7357.38 1465 7335.38 1436C7314.38 1407 7284.88 1392.5 7246.88 1392.5C7207.88 1392.5 7170.38 1407.5 7134.38 1437.5C7099.38 1467.5 7074.38 1507 7059.38 1556V2015H6858.38V1229H7039.88V1374.5C7069.88 1323.5 7109.88 1284.5 7159.88 1257.5C7209.88 1229.5 7267.38 1215.5 7332.38 1215.5C7397.38 1215.5 7447.88 1231.5 7483.88 1263.5C7520.88 1295.5 7544.38 1335 7554.38 1382C7586.38 1328 7626.88 1287 7675.88 1259C7725.88 1230 7781.88 1215.5 7843.88 1215.5C7892.88 1215.5 7932.38 1224.5 7962.38 1242.5C7993.38 1259.5 8017.38 1283 8034.38 1313C8051.38 1342 8062.88 1375 8068.88 1412C8075.88 1449 8079.38 1486.5 8079.38 1524.5V2015ZM8617.38 2030C8553.38 2030 8495.88 2019.5 8444.88 1998.5C8393.88 1976.5 8350.38 1946.5 8314.38 1908.5C8279.38 1870.5 8252.38 1827 8233.38 1778C8214.38 1729 8204.88 1677.5 8204.88 1623.5C8204.88 1568.5 8214.38 1516.5 8233.38 1467.5C8252.38 1418.5 8279.38 1375 8314.38 1337C8350.38 1299 8393.88 1269.5 8444.88 1248.5C8495.88 1226.5 8553.38 1215.5 8617.38 1215.5C8681.38 1215.5 8738.38 1226.5 8788.38 1248.5C8839.38 1269.5 8882.88 1299 8918.88 1337C8954.88 1375 8981.88 1418.5 8999.88 1467.5C9018.88 1516.5 9028.38 1568.5 9028.38 1623.5C9028.38 1677.5 9018.88 1729 8999.88 1778C8981.88 1827 8954.88 1870.5 8918.88 1908.5C8883.88 1946.5 8840.88 1976.5 8789.88 1998.5C8738.88 2019.5 8681.38 2030 8617.38 2030ZM8411.88 1623.5C8411.88 1669.5 8420.88 1710.5 8438.88 1746.5C8456.88 1781.5 8481.38 1809 8512.38 1829C8543.38 1849 8578.38 1859 8617.38 1859C8655.38 1859 8689.88 1849 8720.88 1829C8751.88 1808 8776.38 1780 8794.38 1745C8813.38 1709 8822.88 1668 8822.88 1622C8822.88 1577 8813.38 1536.5 8794.38 1500.5C8776.38 1464.5 8751.88 1436.5 8720.88 1416.5C8689.88 1396.5 8655.38 1386.5 8617.38 1386.5C8578.38 1386.5 8543.38 1397 8512.38 1418C8481.38 1438 8456.88 1466 8438.88 1502C8420.88 1537 8411.88 1577.5 8411.88 1623.5ZM9894.54 2015H9693.54V1574C9693.54 1511 9682.54 1465 9660.54 1436C9638.54 1407 9608.04 1392.5 9569.04 1392.5C9542.04 1392.5 9514.54 1399.5 9486.54 1413.5C9459.54 1427.5 9435.04 1447 9413.04 1472C9391.04 1496 9375.04 1524 9365.04 1556V2015H9164.04V1229H9345.54V1374.5C9365.54 1340.5 9391.04 1312 9422.04 1289C9453.04 1265 9488.54 1247 9528.54 1235C9569.54 1222 9612.54 1215.5 9657.54 1215.5C9706.54 1215.5 9746.54 1224.5 9777.54 1242.5C9809.54 1259.5 9833.54 1283 9849.54 1313C9866.54 1342 9878.04 1375 9884.04 1412C9891.04 1449 9894.54 1486.5 9894.54 1524.5V2015Z" fill="white"/>
</svg>
